<?xml version="1.0" standalone="no"?><!DOCTYPE svg PUBLIC "-//W3C//DTD SVG 1.1//EN" "http://www.w3.org/Graphics/SVG/1.1/DTD/svg11.dtd"><svg class="icon" width="128px" height="98.40px" viewBox="0 0 1332 1024" version="1.1" xmlns="http://www.w3.org/2000/svg"><path d="M415.824 657.76c259.138-77.734 478.778-239.106 610.089-462.37l120.847 62.266L1076.044 0 825.091 91.916l122.178 62.952c-119.751 204.076-320.503 351.43-557.38 422.095-20.227 3.439-35.632 21.031-35.632 42.231 0 23.667 19.192 42.851 42.866 42.851a42.71 42.71 0 0 0 18.701-4.284z" fill="#f0522a" /><path d="M1113.33 282.518c-26.254 0-47.534 23.956-47.534 53.507v634.469c0 29.55 21.282 53.506 47.533 53.506s47.534-23.955 47.534-53.506v-634.47c0-29.55-21.282-53.506-47.534-53.506zM881.096 485.412c-26.253 0-47.534 23.956-47.534 53.507v431.575c0 29.55 21.283 53.506 47.534 53.506s47.534-23.955 47.534-53.506V538.918c0-29.55-21.282-53.506-47.534-53.506zM648.863 644.356c-26.253 0-47.534 23.956-47.534 53.507v272.63c0 29.552 21.282 53.507 47.534 53.507s47.534-23.955 47.534-53.506V697.863c0-29.551-21.282-53.507-47.534-53.507zM416.63 746.059c-26.253 0-47.534 23.955-47.534 53.506v170.929c0 29.55 21.282 53.506 47.534 53.506s47.534-23.955 47.534-53.506v-170.93c0-29.55-21.281-53.505-47.534-53.505zM184.397 837.1c-26.253 0-47.534 23.955-47.534 53.506v79.888c0 29.55 21.282 53.506 47.534 53.506s47.533-23.955 47.533-53.506v-79.888c0-29.551-21.28-53.507-47.533-53.507zM184.397 599.392c-26.253 0-47.534 23.956-47.534 53.507v9.464c0 29.551 21.282 53.506 47.534 53.506s47.533-23.955 47.533-53.506V652.9c0-29.551-21.28-53.507-47.533-53.507z" fill="#f0522a" /></svg>